<svg id="svg" version="1.1" xmlns="http://www.w3.org/2000/svg" xmlns:xlink="http://www.w3.org/1999/xlink" width="400" height="365.99999999999994" viewBox="0, 0, 400,365.99999999999994"><g id="svgg"><path id="path0" d="M142.667 42.229 C 78.540 48.968,39.767 114.712,65.152 173.667 C 72.164 189.951,86.200 206.434,100.500 215.178 C 102.239 216.241,100.951 215.202,97.457 212.724 C 91.539 208.525,82.223 199.999,82.860 199.363 C 82.957 199.266,83.155 199.379,83.301 199.614 C 83.473 199.892,84.333 200.042,85.759 200.042 C 87.260 200.042,88.079 200.193,88.351 200.521 C 88.609 200.832,88.624 201.000,88.394 201.000 C 88.199 201.000,87.947 200.850,87.833 200.667 C 87.720 200.483,87.229 200.333,86.742 200.333 C 85.940 200.333,85.906 200.382,86.378 200.854 C 86.791 201.267,87.725 201.375,90.929 201.379 C 94.005 201.383,95.054 201.497,95.354 201.859 C 95.612 202.169,95.626 202.333,95.394 202.333 C 95.199 202.333,94.947 202.183,94.833 202.000 C 94.720 201.817,94.229 201.667,93.742 201.667 C 92.941 201.667,92.907 201.716,93.376 202.185 C 93.754 202.563,94.579 202.704,96.422 202.704 C 98.218 202.704,99.065 202.843,99.349 203.185 C 99.608 203.497,99.623 203.667,99.394 203.667 C 99.199 203.667,98.947 203.517,98.833 203.333 C 98.720 203.150,98.243 203.000,97.773 203.000 C 97.036 203.000,96.978 203.072,97.351 203.521 C 97.616 203.840,98.246 204.022,98.975 203.989 C 99.630 203.960,100.317 203.963,100.500 203.996 C 100.683 204.030,101.620 204.033,102.581 204.004 C 103.876 203.965,104.581 204.131,105.300 204.643 C 105.921 205.085,106.790 205.334,107.718 205.336 C 108.603 205.337,109.556 205.596,110.167 206.000 C 110.843 206.448,111.731 206.663,112.909 206.664 C 114.060 206.666,115.021 206.892,115.742 207.332 C 116.520 207.807,117.423 207.998,118.889 207.999 C 120.202 208.000,121.507 208.241,122.500 208.667 C 123.355 209.033,124.680 209.345,125.444 209.359 C 126.208 209.373,127.358 209.599,128.000 209.861 C 129.110 210.315,129.118 210.330,128.167 210.163 C 127.617 210.066,126.267 209.858,125.167 209.701 C 124.067 209.544,122.586 209.172,121.876 208.874 C 121.166 208.577,119.771 208.333,118.777 208.333 C 117.650 208.333,116.447 208.082,115.588 207.667 C 114.829 207.300,113.555 207.000,112.757 207.000 C 111.960 207.000,110.719 206.700,110.000 206.333 C 109.281 205.967,108.125 205.666,107.430 205.665 C 106.735 205.665,105.676 205.365,105.075 204.999 C 103.708 204.165,100.436 204.003,101.520 204.823 C 101.875 205.092,102.767 205.318,103.500 205.325 C 104.253 205.332,105.268 205.626,105.833 206.000 C 106.439 206.401,107.397 206.663,108.263 206.664 C 109.050 206.666,110.281 206.967,111.000 207.333 C 111.744 207.713,112.965 208.000,113.833 208.000 C 114.702 208.000,115.923 208.287,116.667 208.667 C 117.544 209.114,118.631 209.333,119.974 209.333 C 121.201 209.333,122.642 209.596,123.697 210.012 C 125.440 210.699,125.828 210.724,134.000 210.678 C 135.742 210.669,138.367 210.883,139.833 211.155 C 141.911 211.540,142.095 211.612,140.667 211.484 C 139.658 211.393,137.333 211.253,135.500 211.172 L 132.167 211.024 134.000 211.500 C 136.715 212.205,167.410 212.201,169.833 211.495 L 171.500 211.010 168.167 211.160 C 166.333 211.242,164.083 211.385,163.167 211.477 C 161.829 211.612,161.960 211.550,163.833 211.164 C 165.117 210.900,167.667 210.686,169.500 210.689 C 171.333 210.692,174.052 210.693,175.540 210.692 C 177.474 210.691,178.739 210.497,179.969 210.012 C 181.025 209.596,182.465 209.333,183.692 209.333 C 185.035 209.333,186.123 209.114,187.000 208.667 C 187.793 208.262,188.965 208.000,189.979 208.000 C 191.063 208.000,192.034 207.766,192.742 207.335 C 193.402 206.932,194.426 206.668,195.333 206.666 C 196.267 206.664,197.211 206.412,197.833 206.000 C 198.416 205.614,199.397 205.337,200.186 205.336 C 200.930 205.334,201.830 205.113,202.186 204.844 C 203.239 204.048,200.276 204.179,198.667 205.000 C 197.948 205.367,196.823 205.667,196.167 205.667 C 195.510 205.667,194.385 205.967,193.667 206.333 C 192.948 206.700,191.766 207.000,191.041 207.000 C 190.315 207.000,189.022 207.300,188.167 207.667 C 187.264 208.054,185.871 208.333,184.846 208.333 C 183.876 208.333,182.504 208.575,181.799 208.869 C 180.639 209.354,179.031 209.696,175.667 210.174 C 174.630 210.321,174.667 210.284,176.000 209.842 C 176.825 209.568,178.025 209.338,178.667 209.331 C 179.308 209.324,180.487 209.022,181.286 208.659 C 182.211 208.240,183.459 208.000,184.716 208.000 C 186.035 208.000,187.128 207.778,188.000 207.333 C 188.765 206.943,189.969 206.666,190.903 206.664 C 191.936 206.663,192.853 206.428,193.500 206.000 C 194.122 205.588,195.067 205.336,196.000 205.333 C 196.924 205.331,197.881 205.078,198.491 204.675 C 199.300 204.143,200.053 204.024,202.574 204.030 C 204.844 204.037,205.862 203.901,206.407 203.519 C 207.145 203.002,207.144 203.000,206.094 203.000 C 205.514 203.000,204.947 203.150,204.833 203.333 C 204.720 203.517,204.468 203.667,204.273 203.667 C 204.043 203.667,204.059 203.497,204.318 203.185 C 204.602 202.843,205.448 202.704,207.245 202.704 C 209.087 202.704,209.913 202.563,210.291 202.185 C 210.760 201.716,210.725 201.667,209.924 201.667 C 209.438 201.667,208.947 201.817,208.833 202.000 C 208.720 202.183,208.468 202.333,208.273 202.333 C 208.056 202.333,208.086 202.132,208.350 201.813 C 208.595 201.518,209.227 201.316,209.808 201.347 C 210.372 201.376,210.983 201.368,211.167 201.328 C 211.350 201.287,211.634 201.279,211.798 201.310 C 213.339 201.597,216.835 201.308,217.286 200.857 C 217.762 200.381,217.744 200.333,217.091 200.333 C 216.696 200.333,216.280 200.483,216.167 200.667 C 216.053 200.850,215.801 201.000,215.606 201.000 C 215.376 201.000,215.392 200.831,215.651 200.519 C 215.905 200.213,216.659 200.043,217.731 200.052 C 218.840 200.060,219.593 199.884,219.944 199.532 C 220.262 199.215,220.321 199.000,220.091 199.000 C 219.879 199.000,219.613 199.150,219.500 199.333 C 219.387 199.517,219.121 199.667,218.909 199.667 C 218.678 199.667,218.736 199.455,219.053 199.138 C 219.348 198.843,219.931 198.669,220.374 198.746 C 222.111 199.045,211.217 208.993,203.413 214.234 C 198.907 217.260,198.334 217.682,199.667 216.993 C 219.186 206.895,237.091 182.622,243.183 158.000 C 258.517 96.026,206.028 35.571,142.667 42.229 M159.678 105.841 C 182.393 110.569,193.287 136.802,180.590 156.194 C 166.279 178.050,132.884 175.064,122.650 151.014 C 112.314 126.724,133.840 100.462,159.678 105.841 M164.000 120.531 C 161.097 121.786,159.307 125.081,159.957 127.974 C 161.709 135.772,173.000 134.638,173.000 126.664 C 173.000 121.955,168.227 118.703,164.000 120.531 M84.833 198.000 C 85.196 198.401,85.860 198.667,86.500 198.667 C 87.140 198.667,87.804 198.932,88.167 199.333 C 88.527 199.732,89.193 200.000,89.821 200.000 C 90.399 200.000,91.164 200.237,91.520 200.527 C 92.157 201.047,92.157 201.051,91.500 200.813 C 91.133 200.681,90.383 200.499,89.833 200.408 C 89.283 200.318,88.435 199.964,87.949 199.622 C 87.462 199.280,86.623 199.000,86.084 199.000 C 85.527 199.000,84.843 198.712,84.500 198.333 C 83.736 197.489,80.969 197.327,81.667 198.167 C 81.895 198.442,82.570 198.667,83.167 198.667 C 83.763 198.667,84.438 198.892,84.667 199.167 C 84.928 199.482,84.951 199.667,84.727 199.667 C 84.532 199.667,84.271 199.503,84.147 199.302 C 84.023 199.101,83.571 199.004,83.143 199.086 C 82.596 199.191,82.092 198.951,81.453 198.284 L 80.542 197.333 82.386 197.333 C 83.807 197.333,84.369 197.486,84.833 198.000 M221.119 197.576 C 220.302 197.650,219.499 197.966,219.151 198.351 C 218.803 198.736,218.131 199.000,217.500 199.000 C 216.860 199.000,216.196 199.265,215.833 199.667 C 215.463 200.076,214.807 200.333,214.135 200.333 C 213.532 200.333,212.947 200.483,212.833 200.667 C 212.720 200.850,212.468 201.000,212.273 201.000 C 212.049 201.000,212.072 200.815,212.333 200.500 C 212.562 200.225,213.232 200.000,213.822 200.000 C 214.473 200.000,215.134 199.737,215.500 199.333 C 215.902 198.889,216.527 198.667,217.373 198.667 C 218.302 198.667,218.739 198.488,219.000 198.000 C 219.287 197.463,219.662 197.345,220.928 197.392 L 222.500 197.450 221.119 197.576 M90.000 202.167 C 90.233 202.447,90.959 202.667,91.656 202.667 C 92.473 202.667,93.103 202.894,93.500 203.333 C 93.920 203.798,94.527 204.000,95.500 204.000 C 96.473 204.000,97.080 204.202,97.500 204.667 C 97.915 205.126,98.529 205.334,99.468 205.336 C 100.269 205.337,101.247 205.611,101.833 206.000 C 102.408 206.381,103.401 206.664,104.167 206.667 C 104.933 206.669,105.925 206.953,106.500 207.333 C 107.142 207.758,108.064 207.996,109.075 207.998 C 110.060 207.999,111.060 208.250,111.742 208.665 C 112.458 209.102,113.423 209.331,114.547 209.332 C 115.540 209.333,116.872 209.611,117.714 209.993 C 118.642 210.414,119.900 210.655,121.198 210.659 C 122.342 210.663,124.075 210.958,125.167 211.333 C 126.485 211.787,127.972 212.000,129.819 212.000 C 131.312 212.000,133.876 212.297,135.517 212.659 C 139.624 213.567,163.685 213.662,167.500 212.786 C 168.783 212.491,171.558 212.141,173.667 212.008 C 175.830 211.872,178.135 211.528,178.959 211.217 C 179.761 210.914,181.379 210.667,182.555 210.667 C 184.035 210.667,185.095 210.462,186.000 210.000 C 186.799 209.592,187.965 209.333,189.000 209.333 C 190.035 209.333,191.201 209.074,192.000 208.667 C 192.719 208.300,193.950 207.999,194.737 207.998 C 195.603 207.996,196.561 207.734,197.167 207.333 C 197.777 206.929,198.731 206.670,199.614 206.669 C 200.554 206.667,201.359 206.433,201.909 206.000 C 202.432 205.588,203.261 205.333,204.076 205.333 C 204.890 205.333,205.719 205.078,206.242 204.667 C 206.744 204.272,207.595 204.000,208.327 204.000 C 209.140 204.000,209.770 203.772,210.167 203.333 C 210.564 202.894,211.193 202.667,212.011 202.667 C 212.707 202.667,213.434 202.447,213.667 202.167 C 214.328 201.369,211.713 201.515,210.667 202.333 C 210.208 202.692,209.424 202.989,208.925 202.993 C 208.425 202.997,207.525 203.299,206.925 203.665 C 206.324 204.031,205.349 204.331,204.758 204.332 C 204.167 204.333,203.192 204.633,202.591 204.999 C 201.991 205.365,201.007 205.665,200.403 205.665 C 199.800 205.666,198.719 205.967,198.000 206.333 C 197.281 206.700,196.156 207.000,195.500 207.000 C 194.844 207.000,193.719 207.300,193.000 207.667 C 192.272 208.038,191.035 208.333,190.208 208.333 C 189.390 208.333,188.022 208.633,187.167 209.000 C 186.268 209.385,184.871 209.667,183.858 209.667 C 182.893 209.667,181.232 209.967,180.167 210.333 C 178.971 210.745,177.361 211.000,175.961 211.000 C 174.713 211.000,172.406 211.300,170.833 211.667 C 168.182 212.285,166.799 212.333,151.833 212.333 C 136.868 212.333,135.484 212.285,132.833 211.667 C 131.261 211.300,128.953 211.000,127.706 211.000 C 126.306 211.000,124.696 210.745,123.500 210.333 C 122.434 209.967,120.773 209.667,119.809 209.667 C 118.796 209.667,117.398 209.385,116.500 209.000 C 115.645 208.633,114.310 208.333,113.535 208.333 C 112.760 208.333,111.504 208.033,110.745 207.667 C 109.986 207.300,108.827 207.000,108.169 207.000 C 107.512 207.000,106.385 206.700,105.667 206.333 C 104.948 205.967,103.866 205.666,103.263 205.665 C 102.660 205.665,101.676 205.365,101.075 204.999 C 100.475 204.633,99.541 204.333,99.000 204.333 C 98.459 204.333,97.525 204.034,96.925 203.668 C 96.324 203.302,95.383 202.999,94.833 202.994 C 94.283 202.989,93.458 202.692,93.000 202.333 C 91.953 201.515,89.338 201.369,90.000 202.167 M263.368 204.459 C 263.071 204.816,263.634 205.457,266.077 207.538 C 268.387 209.508,382.731 310.335,393.333 319.753 C 395.127 321.346,398.852 323.667,399.615 323.667 C 400.873 323.667,399.818 322.289,397.658 321.111 C 395.812 320.104,381.957 308.036,332.283 264.167 C 259.259 199.676,263.958 203.747,263.368 204.459 M262.582 205.529 C 262.471 205.640,263.907 207.029,265.772 208.615 C 268.351 210.808,383.964 312.748,393.333 321.090 C 395.524 323.040,400.000 325.474,400.000 324.715 C 400.000 324.567,398.912 323.894,397.583 323.220 C 396.254 322.545,394.267 321.197,393.167 320.225 C 369.110 298.964,268.160 209.949,266.486 208.521 C 265.210 207.433,263.856 206.269,263.475 205.935 C 263.095 205.601,262.693 205.418,262.582 205.529 M261.323 207.516 C 260.648 208.609,260.633 208.744,261.130 209.293 C 261.426 209.620,261.555 210.012,261.417 210.164 C 261.279 210.316,261.331 210.347,261.532 210.232 C 262.016 209.957,266.726 213.968,266.447 214.419 C 266.328 214.612,266.384 214.675,266.571 214.559 C 267.027 214.277,274.383 220.649,274.111 221.090 C 273.993 221.281,274.047 221.344,274.230 221.231 C 274.685 220.949,279.385 224.980,279.114 225.419 C 278.995 225.612,279.047 225.677,279.230 225.564 C 279.614 225.326,284.407 229.278,284.180 229.645 C 284.097 229.779,284.226 229.889,284.467 229.889 C 285.131 229.889,292.007 236.052,291.770 236.435 C 291.657 236.619,291.725 236.670,291.921 236.549 C 292.316 236.305,297.075 240.276,296.841 240.654 C 296.761 240.783,296.890 240.889,297.127 240.889 C 297.796 240.889,309.676 251.382,309.440 251.764 C 309.325 251.951,309.393 252.003,309.591 251.880 C 309.995 251.630,314.755 255.588,314.516 255.975 C 314.431 256.111,314.560 256.222,314.802 256.222 C 315.365 256.222,327.373 266.665,327.177 266.984 C 327.096 267.115,327.224 267.222,327.463 267.222 C 328.143 267.222,345.017 282.037,344.777 282.424 C 344.656 282.621,344.725 282.670,344.938 282.538 C 345.421 282.240,357.735 292.954,357.446 293.421 C 357.322 293.621,357.391 293.671,357.607 293.537 C 358.879 292.751,388.556 320.498,387.782 321.750 C 387.658 321.951,387.721 322.006,387.930 321.877 C 388.415 321.577,394.788 330.044,395.079 331.374 C 395.127 331.596,395.435 332.058,395.762 332.401 C 396.090 332.744,396.268 333.169,396.159 333.345 C 396.050 333.522,396.094 333.667,396.257 333.667 C 396.596 333.667,398.244 337.233,398.875 339.333 C 399.323 340.821,399.376 341.140,399.501 343.055 C 399.636 345.138,398.927 347.004,397.578 348.112 C 397.169 348.449,397.058 348.607,397.333 348.464 C 397.608 348.320,397.316 348.795,396.684 349.518 C 396.052 350.241,395.403 350.792,395.243 350.742 C 395.082 350.691,395.029 350.777,395.125 350.932 C 395.220 351.087,394.637 352.021,393.827 353.007 C 393.018 353.994,392.397 354.841,392.446 354.890 C 392.651 355.095,396.627 355.958,398.250 356.150 L 400.000 356.356 400.000 340.928 L 399.999 325.500 397.583 324.413 C 396.222 323.801,394.293 322.554,393.167 321.559 C 320.089 256.966,262.551 206.333,262.227 206.333 C 262.132 206.333,261.725 206.866,261.323 207.516 M102.167 216.163 C 102.911 216.782,105.023 217.924,104.500 217.425 C 104.317 217.250,103.567 216.770,102.833 216.358 C 102.100 215.946,101.800 215.859,102.167 216.163 M105.000 217.816 C 105.000 217.908,105.450 218.216,106.000 218.500 C 106.550 218.784,107.000 218.942,107.000 218.850 C 107.000 218.759,106.550 218.451,106.000 218.167 C 105.450 217.882,105.000 217.725,105.000 217.816 M193.333 220.167 C 192.142 220.791,191.283 221.308,191.426 221.317 C 191.781 221.339,195.667 219.364,195.667 219.162 C 195.667 218.938,195.745 218.904,193.333 220.167 M143.921 229.902 C 144.335 229.982,144.935 229.979,145.254 229.896 C 145.573 229.812,145.233 229.747,144.500 229.751 C 143.767 229.754,143.506 229.823,143.921 229.902 M157.921 229.902 C 158.335 229.982,158.935 229.979,159.254 229.896 C 159.573 229.812,159.233 229.747,158.500 229.751 C 157.767 229.754,157.506 229.823,157.921 229.902 M150.243 230.241 C 150.834 230.314,151.884 230.315,152.576 230.243 C 153.267 230.171,152.783 230.111,151.500 230.109 C 150.217 230.108,149.651 230.167,150.243 230.241 M391.820 355.645 C 392.213 356.281,400.000 357.613,400.000 357.044 C 400.000 356.863,399.137 356.617,398.083 356.498 C 397.029 356.379,395.292 356.068,394.223 355.807 C 391.940 355.250,391.560 355.225,391.820 355.645 M391.004 356.462 C 390.422 357.044,390.617 357.226,392.431 357.797 C 395.301 358.700,400.000 359.004,400.000 358.288 C 400.000 357.837,399.590 357.669,398.083 357.500 C 397.029 357.381,395.081 357.024,393.754 356.705 C 392.126 356.313,391.232 356.234,391.004 356.462 " stroke="none" fill="#e0e0e0" fill-rule="evenodd"></path><path id="path1" d="M9.017 3.409 C -6.360 39.758,-1.863 79.751,21.206 111.816 C 23.337 114.777,23.373 114.864,23.182 116.500 C 23.075 117.417,22.743 120.267,22.446 122.833 C 19.102 151.667,26.926 183.414,43.513 208.316 C 83.361 268.141,164.103 284.362,224.013 244.577 L 224.860 244.015 283.847 295.216 C 347.930 350.842,346.992 350.048,354.956 355.364 C 367.242 363.566,378.484 367.423,382.552 364.833 C 383.735 364.081,397.850 347.876,398.750 346.239 C 401.590 341.069,394.984 328.958,382.002 315.535 C 377.244 310.616,379.451 312.552,307.333 250.023 C 282.308 228.326,261.402 210.161,260.876 209.656 L 259.918 208.739 260.908 207.286 C 277.273 183.274,284.866 149.788,280.837 119.389 L 280.366 115.833 282.961 112.000 C 305.731 78.359,309.520 38.467,293.298 3.167 L 292.532 1.500 292.247 3.167 C 288.704 23.889,278.719 41.425,261.586 57.019 L 257.618 60.631 255.182 57.399 C 204.767 -9.484,102.062 -10.578,50.239 55.217 C 49.099 56.664,47.835 58.270,47.430 58.786 C 46.536 59.923,46.781 60.063,41.680 55.497 C 25.409 40.931,13.220 19.887,11.156 2.798 C 10.778 -0.328,10.573 -0.269,9.017 3.409 M158.833 42.015 C 234.988 48.514,272.556 136.449,224.541 195.817 C 196.865 230.037,147.793 240.217,108.387 219.914 C 68.877 199.557,48.782 153.945,60.495 111.208 C 72.416 67.711,114.333 38.217,158.833 42.015 M147.553 105.661 C 121.526 110.376,111.115 141.833,129.310 160.780 C 149.655 181.965,185.569 167.793,185.771 138.500 C 185.913 118.021,167.354 102.074,147.553 105.661 M170.239 121.101 C 175.653 124.853,173.089 133.333,166.541 133.333 C 160.791 133.333,157.705 127.069,161.184 122.459 C 163.130 119.880,167.526 119.221,170.239 121.101 " stroke="none" fill="#121212" fill-rule="evenodd"></path><path id="path2" d="M245.744 139.667 C 245.744 140.308,245.813 140.571,245.896 140.250 C 245.980 139.929,245.980 139.404,245.896 139.083 C 245.813 138.762,245.744 139.025,245.744 139.667 M176.146 161.417 L 175.167 162.500 176.250 161.521 C 176.846 160.983,177.333 160.495,177.333 160.438 C 177.333 160.180,177.058 160.407,176.146 161.417 M217.989 202.917 L 216.167 204.833 218.083 203.011 C 219.864 201.319,220.153 201.000,219.905 201.000 C 219.853 201.000,218.991 201.862,217.989 202.917 " stroke="none" fill="#666666" fill-rule="evenodd"></path><path id="path3" d="M150.093 41.912 C 150.970 41.981,152.320 41.980,153.093 41.910 C 153.867 41.840,153.150 41.784,151.500 41.785 C 149.850 41.786,149.217 41.843,150.093 41.912 M152.083 105.239 C 152.587 105.315,153.412 105.315,153.917 105.239 C 154.421 105.162,154.008 105.100,153.000 105.100 C 151.992 105.100,151.579 105.162,152.083 105.239 M245.757 136.000 C 245.757 136.825,245.822 137.162,245.902 136.750 C 245.981 136.337,245.981 135.662,245.902 135.250 C 245.822 134.837,245.757 135.175,245.757 136.000 M81.453 198.284 C 82.092 198.951,82.596 199.191,83.143 199.086 C 83.571 199.004,84.023 199.101,84.147 199.302 C 84.271 199.503,84.532 199.667,84.727 199.667 C 84.951 199.667,84.928 199.482,84.667 199.167 C 84.438 198.892,83.763 198.667,83.167 198.667 C 82.570 198.667,81.895 198.442,81.667 198.167 C 80.969 197.327,83.736 197.489,84.500 198.333 C 84.843 198.712,85.527 199.000,86.084 199.000 C 86.623 199.000,87.462 199.280,87.949 199.622 C 88.435 199.964,89.283 200.318,89.833 200.408 C 90.383 200.499,91.133 200.681,91.500 200.813 C 92.157 201.051,92.157 201.047,91.520 200.527 C 91.164 200.237,90.399 200.000,89.821 200.000 C 89.193 200.000,88.527 199.732,88.167 199.333 C 87.804 198.932,87.140 198.667,86.500 198.667 C 85.860 198.667,85.196 198.401,84.833 198.000 C 84.369 197.486,83.807 197.333,82.386 197.333 L 80.542 197.333 81.453 198.284 M219.000 198.000 C 218.739 198.488,218.302 198.667,217.373 198.667 C 216.527 198.667,215.902 198.889,215.500 199.333 C 215.134 199.737,214.473 200.000,213.822 200.000 C 213.232 200.000,212.562 200.225,212.333 200.500 C 212.072 200.815,212.049 201.000,212.273 201.000 C 212.468 201.000,212.720 200.850,212.833 200.667 C 212.947 200.483,213.532 200.333,214.135 200.333 C 214.807 200.333,215.463 200.076,215.833 199.667 C 216.196 199.265,216.860 199.000,217.500 199.000 C 218.131 199.000,218.803 198.736,219.151 198.351 C 219.499 197.966,220.302 197.650,221.119 197.576 L 222.500 197.450 220.928 197.392 C 219.662 197.345,219.287 197.463,219.000 198.000 M219.000 199.167 C 218.738 199.482,218.716 199.667,218.940 199.667 C 219.134 199.667,219.387 199.517,219.500 199.333 C 219.613 199.150,219.879 199.000,220.091 199.000 C 220.321 199.000,220.262 199.215,219.944 199.532 C 219.593 199.884,218.840 200.060,217.731 200.052 C 216.659 200.043,215.905 200.213,215.651 200.519 C 215.392 200.831,215.376 201.000,215.606 201.000 C 215.801 201.000,216.053 200.850,216.167 200.667 C 216.280 200.483,216.696 200.333,217.091 200.333 C 217.744 200.333,217.762 200.381,217.286 200.857 C 216.835 201.308,213.339 201.597,211.798 201.310 C 211.634 201.279,211.350 201.287,211.167 201.328 C 210.983 201.368,210.372 201.376,209.808 201.347 C 209.227 201.316,208.595 201.518,208.350 201.813 C 208.086 202.132,208.056 202.333,208.273 202.333 C 208.468 202.333,208.720 202.183,208.833 202.000 C 208.947 201.817,209.438 201.667,209.924 201.667 C 210.725 201.667,210.760 201.716,210.291 202.185 C 209.913 202.563,209.087 202.704,207.245 202.704 C 205.448 202.704,204.602 202.843,204.318 203.185 C 204.059 203.497,204.043 203.667,204.273 203.667 C 204.468 203.667,204.720 203.517,204.833 203.333 C 204.947 203.150,205.514 203.000,206.094 203.000 C 207.144 203.000,207.145 203.002,206.407 203.519 C 205.862 203.901,204.844 204.037,202.574 204.030 C 200.053 204.024,199.300 204.143,198.491 204.675 C 197.881 205.078,196.924 205.331,196.000 205.333 C 195.067 205.336,194.122 205.588,193.500 206.000 C 192.853 206.428,191.936 206.663,190.903 206.664 C 189.969 206.666,188.765 206.943,188.000 207.333 C 187.128 207.778,186.035 208.000,184.716 208.000 C 183.459 208.000,182.211 208.240,181.286 208.659 C 180.487 209.022,179.308 209.324,178.667 209.331 C 178.025 209.338,176.825 209.568,176.000 209.842 C 174.667 210.284,174.630 210.321,175.667 210.174 C 179.031 209.696,180.639 209.354,181.799 208.869 C 182.504 208.575,183.876 208.333,184.846 208.333 C 185.871 208.333,187.264 208.054,188.167 207.667 C 189.022 207.300,190.315 207.000,191.041 207.000 C 191.766 207.000,192.948 206.700,193.667 206.333 C 194.385 205.967,195.510 205.667,196.167 205.667 C 196.823 205.667,197.948 205.367,198.667 205.000 C 200.276 204.179,203.239 204.048,202.186 204.844 C 201.830 205.113,200.930 205.334,200.186 205.336 C 199.397 205.337,198.416 205.614,197.833 206.000 C 197.211 206.412,196.267 206.664,195.333 206.666 C 194.426 206.668,193.402 206.932,192.742 207.335 C 192.034 207.766,191.063 208.000,189.979 208.000 C 188.965 208.000,187.793 208.262,187.000 208.667 C 186.123 209.114,185.035 209.333,183.692 209.333 C 182.465 209.333,181.025 209.596,179.969 210.012 C 178.739 210.497,177.474 210.691,175.540 210.692 C 174.052 210.693,171.333 210.692,169.500 210.689 C 167.667 210.686,165.117 210.900,163.833 211.164 C 161.960 211.550,161.829 211.612,163.167 211.477 C 164.083 211.385,166.333 211.242,168.167 211.160 L 171.500 211.010 169.833 211.495 C 167.410 212.201,136.715 212.205,134.000 211.500 L 132.167 211.024 135.500 211.172 C 137.333 211.253,139.658 211.393,140.667 211.484 C 142.095 211.612,141.911 211.540,139.833 211.155 C 138.367 210.883,135.742 210.669,134.000 210.678 C 125.828 210.724,125.440 210.699,123.697 210.012 C 122.642 209.596,121.201 209.333,119.974 209.333 C 118.631 209.333,117.544 209.114,116.667 208.667 C 115.923 208.287,114.702 208.000,113.833 208.000 C 112.965 208.000,111.744 207.713,111.000 207.333 C 110.281 206.967,109.050 206.666,108.263 206.664 C 107.397 206.663,106.439 206.401,105.833 206.000 C 105.268 205.626,104.253 205.332,103.500 205.325 C 102.767 205.318,101.875 205.092,101.520 204.823 C 100.436 204.003,103.708 204.165,105.075 204.999 C 105.676 205.365,106.735 205.665,107.430 205.665 C 108.125 205.666,109.281 205.967,110.000 206.333 C 110.719 206.700,111.960 207.000,112.757 207.000 C 113.555 207.000,114.829 207.300,115.588 207.667 C 116.447 208.082,117.650 208.333,118.777 208.333 C 119.771 208.333,121.166 208.577,121.876 208.874 C 122.586 209.172,124.067 209.544,125.167 209.701 C 126.267 209.858,127.617 210.066,128.167 210.163 C 129.118 210.330,129.110 210.315,128.000 209.861 C 127.358 209.599,126.208 209.373,125.444 209.359 C 124.680 209.345,123.355 209.033,122.500 208.667 C 121.507 208.241,120.202 208.000,118.889 207.999 C 117.423 207.998,116.520 207.807,115.742 207.332 C 115.021 206.892,114.060 206.666,112.909 206.664 C 111.731 206.663,110.843 206.448,110.167 206.000 C 109.556 205.596,108.603 205.337,107.718 205.336 C 106.790 205.334,105.921 205.085,105.300 204.643 C 104.581 204.131,103.876 203.965,102.581 204.004 C 101.620 204.033,100.683 204.030,100.500 203.996 C 100.317 203.963,99.630 203.960,98.975 203.989 C 98.246 204.022,97.616 203.840,97.351 203.521 C 96.978 203.072,97.036 203.000,97.773 203.000 C 98.243 203.000,98.720 203.150,98.833 203.333 C 98.947 203.517,99.199 203.667,99.394 203.667 C 99.623 203.667,99.608 203.497,99.349 203.185 C 99.065 202.843,98.218 202.704,96.422 202.704 C 94.579 202.704,93.754 202.563,93.376 202.185 C 92.907 201.716,92.941 201.667,93.742 201.667 C 94.229 201.667,94.720 201.817,94.833 202.000 C 94.947 202.183,95.199 202.333,95.394 202.333 C 95.626 202.333,95.612 202.169,95.354 201.859 C 95.054 201.497,94.005 201.383,90.929 201.379 C 87.725 201.375,86.791 201.267,86.378 200.854 C 85.906 200.382,85.940 200.333,86.742 200.333 C 87.229 200.333,87.720 200.483,87.833 200.667 C 87.947 200.850,88.199 201.000,88.394 201.000 C 88.624 201.000,88.609 200.832,88.351 200.521 C 88.079 200.193,87.260 200.042,85.759 200.042 C 84.333 200.042,83.473 199.892,83.301 199.614 C 83.155 199.379,82.960 199.262,82.867 199.355 C 82.774 199.448,83.450 200.373,84.369 201.411 C 85.288 202.449,86.040 203.419,86.040 203.566 C 86.041 203.980,87.402 205.330,87.658 205.172 C 87.992 204.966,90.334 206.976,90.244 207.391 C 90.201 207.586,90.437 207.790,90.767 207.845 C 91.493 207.967,92.339 208.630,92.239 208.999 C 92.199 209.146,92.242 209.256,92.333 209.244 C 92.797 209.180,93.992 210.077,93.818 210.358 C 93.707 210.537,93.741 210.656,93.892 210.622 C 94.457 210.496,95.321 211.084,95.111 211.452 C 94.991 211.662,95.012 211.726,95.157 211.595 C 95.547 211.243,96.723 211.972,96.458 212.402 C 96.333 212.604,96.381 212.677,96.565 212.563 C 96.922 212.342,99.104 213.785,98.829 214.060 C 98.740 214.149,98.859 214.222,99.094 214.222 C 99.660 214.222,101.333 215.330,101.333 215.705 C 101.333 215.867,101.446 215.982,101.583 215.961 C 102.304 215.847,102.682 216.042,102.466 216.417 C 102.334 216.646,102.345 216.727,102.489 216.597 C 102.833 216.286,104.667 217.240,104.667 217.731 C 104.667 217.940,104.761 218.017,104.876 217.902 C 105.158 217.619,107.000 218.596,107.000 219.028 C 107.000 219.218,107.150 219.280,107.333 219.167 C 107.517 219.053,107.667 219.128,107.667 219.333 C 107.667 219.538,107.817 219.613,108.000 219.500 C 108.183 219.387,108.333 219.462,108.333 219.667 C 108.333 219.872,108.483 219.947,108.667 219.833 C 108.850 219.720,109.000 219.795,109.000 220.000 C 109.000 220.205,109.150 220.280,109.333 220.167 C 109.517 220.053,109.667 220.128,109.667 220.333 C 109.667 220.538,109.817 220.613,110.000 220.500 C 110.183 220.387,110.333 220.462,110.333 220.667 C 110.333 220.872,110.483 220.947,110.667 220.833 C 110.850 220.720,111.000 220.795,111.000 221.000 C 111.000 221.205,111.150 221.280,111.333 221.167 C 111.517 221.053,111.667 221.145,111.667 221.369 C 111.667 221.594,111.754 221.690,111.862 221.583 C 112.140 221.304,114.000 222.002,114.000 222.386 C 114.000 222.562,114.150 222.613,114.333 222.500 C 114.517 222.387,114.667 222.448,114.667 222.637 C 114.667 222.825,114.872 222.900,115.124 222.804 C 115.375 222.707,115.852 222.899,116.183 223.231 C 116.515 223.562,116.836 223.784,116.898 223.725 C 117.156 223.476,119.000 224.082,119.000 224.415 C 119.000 224.615,119.089 224.689,119.197 224.581 C 119.369 224.409,121.186 224.922,122.667 225.560 C 122.942 225.679,123.267 225.789,123.389 225.805 C 123.511 225.820,123.713 225.935,123.838 226.060 C 123.963 226.185,124.276 226.207,124.533 226.108 C 124.790 226.009,125.000 226.090,125.000 226.287 C 125.000 226.484,125.210 226.565,125.466 226.467 C 125.723 226.368,126.033 226.451,126.156 226.649 C 126.279 226.848,126.506 226.932,126.662 226.836 C 126.817 226.740,127.369 226.836,127.889 227.050 C 128.408 227.263,129.096 227.405,129.417 227.364 C 129.738 227.324,130.000 227.461,130.000 227.668 C 130.000 227.888,130.266 227.960,130.639 227.842 C 130.990 227.731,131.365 227.782,131.472 227.955 C 131.580 228.129,131.950 228.197,132.296 228.106 C 132.642 228.016,133.021 228.098,133.140 228.290 C 133.258 228.481,133.577 228.552,133.848 228.448 C 134.120 228.344,134.546 228.428,134.795 228.635 C 135.045 228.842,135.495 228.917,135.795 228.802 C 136.096 228.686,136.546 228.761,136.795 228.968 C 137.045 229.175,137.493 229.251,137.791 229.137 C 138.089 229.022,138.596 229.047,138.917 229.193 C 139.237 229.338,140.025 229.492,140.667 229.535 C 141.308 229.578,143.033 229.706,144.500 229.818 C 147.969 230.083,155.078 230.082,158.667 229.816 C 163.252 229.475,163.473 229.449,164.083 229.183 C 164.404 229.043,164.911 229.022,165.209 229.137 C 165.507 229.251,165.956 229.175,166.207 228.966 C 166.458 228.758,166.964 228.667,167.331 228.763 C 167.699 228.859,168.082 228.804,168.183 228.640 C 168.284 228.477,168.696 228.345,169.100 228.347 C 170.016 228.350,170.996 228.165,171.734 227.850 C 172.046 227.717,172.448 227.698,172.628 227.809 C 172.807 227.920,173.054 227.848,173.177 227.649 C 173.300 227.451,173.606 227.367,173.856 227.463 C 174.107 227.559,174.407 227.484,174.523 227.296 C 174.639 227.108,174.939 227.033,175.190 227.129 C 175.440 227.226,175.740 227.151,175.856 226.963 C 175.972 226.775,176.277 226.702,176.534 226.800 C 176.790 226.899,177.000 226.827,177.000 226.642 C 177.000 226.456,177.188 226.335,177.417 226.372 C 177.646 226.410,178.258 226.265,178.778 226.051 C 179.298 225.837,179.860 225.747,180.028 225.851 C 180.196 225.954,180.333 225.864,180.333 225.651 C 180.333 225.437,180.558 225.348,180.833 225.454 C 181.108 225.559,181.333 225.484,181.333 225.287 C 181.333 225.090,181.558 225.015,181.833 225.121 C 182.108 225.226,182.333 225.151,182.333 224.954 C 182.333 224.757,182.549 224.678,182.812 224.779 C 183.075 224.880,183.340 224.814,183.400 224.633 C 183.460 224.452,183.845 224.278,184.255 224.248 C 184.665 224.217,185.000 224.057,185.000 223.893 C 185.000 223.729,185.225 223.682,185.500 223.787 C 185.775 223.893,186.000 223.825,186.000 223.637 C 186.000 223.448,186.150 223.387,186.333 223.500 C 186.517 223.613,186.667 223.531,186.667 223.317 C 186.667 223.104,186.892 223.015,187.167 223.121 C 187.442 223.226,187.667 223.158,187.667 222.970 C 187.667 222.781,187.804 222.712,187.972 222.816 C 188.139 222.919,188.329 222.847,188.393 222.654 C 188.457 222.461,188.845 222.278,189.255 222.248 C 189.665 222.217,190.000 222.065,190.000 221.909 C 190.000 221.754,190.150 221.720,190.333 221.833 C 190.517 221.947,190.667 221.872,190.667 221.667 C 190.667 221.462,190.804 221.379,190.972 221.482 C 191.139 221.586,191.327 221.539,191.388 221.377 C 191.555 220.940,195.553 218.998,195.793 219.238 C 195.907 219.351,196.000 219.261,196.000 219.036 C 196.000 218.811,196.150 218.720,196.333 218.833 C 196.517 218.947,196.667 218.855,196.667 218.631 C 196.667 218.406,196.754 218.310,196.861 218.417 C 196.968 218.524,197.349 218.318,197.707 217.960 C 198.065 217.602,198.502 217.398,198.679 217.508 C 198.855 217.617,199.000 217.551,199.000 217.362 C 199.000 216.897,200.848 215.965,201.178 216.263 C 201.322 216.393,201.332 216.313,201.200 216.083 C 200.981 215.703,201.376 215.508,202.108 215.635 C 202.259 215.662,202.288 215.529,202.172 215.342 C 201.979 215.029,202.427 214.851,203.108 214.969 C 203.259 214.995,203.288 214.863,203.172 214.675 C 202.979 214.363,203.427 214.184,204.108 214.302 C 204.259 214.328,204.288 214.196,204.172 214.008 C 203.979 213.696,204.427 213.517,205.108 213.635 C 205.259 213.662,205.288 213.529,205.172 213.342 C 204.979 213.029,205.427 212.851,206.108 212.969 C 206.259 212.995,206.293 212.870,206.182 212.692 C 205.935 212.292,207.143 211.598,207.510 211.928 C 207.655 212.059,207.666 211.979,207.534 211.750 C 207.402 211.521,207.453 211.315,207.647 211.292 C 207.841 211.269,208.188 211.224,208.417 211.193 C 208.646 211.162,208.797 210.960,208.753 210.745 C 208.687 210.421,209.717 209.627,210.333 209.527 C 210.425 209.512,210.464 209.392,210.420 209.260 C 210.343 209.030,211.229 208.435,211.750 208.366 C 211.887 208.348,211.963 208.270,211.917 208.194 C 211.732 207.884,213.496 206.324,213.869 206.468 C 214.090 206.552,214.533 206.332,214.854 205.978 C 215.174 205.623,215.311 205.333,215.157 205.333 C 215.003 205.333,216.255 203.929,217.939 202.212 C 219.622 200.495,221.000 198.995,221.000 198.878 C 221.000 198.451,219.402 198.682,219.000 199.167 M93.000 202.333 C 93.458 202.692,94.283 202.989,94.833 202.994 C 95.383 202.999,96.324 203.302,96.925 203.668 C 97.525 204.034,98.459 204.333,99.000 204.333 C 99.541 204.333,100.475 204.633,101.075 204.999 C 101.676 205.365,102.660 205.665,103.263 205.665 C 103.866 205.666,104.948 205.967,105.667 206.333 C 106.385 206.700,107.512 207.000,108.169 207.000 C 108.827 207.000,109.986 207.300,110.745 207.667 C 111.504 208.033,112.760 208.333,113.535 208.333 C 114.310 208.333,115.645 208.633,116.500 209.000 C 117.398 209.385,118.796 209.667,119.809 209.667 C 120.773 209.667,122.434 209.967,123.500 210.333 C 124.696 210.745,126.306 211.000,127.706 211.000 C 128.953 211.000,131.261 211.300,132.833 211.667 C 135.484 212.285,136.868 212.333,151.833 212.333 C 166.799 212.333,168.182 212.285,170.833 211.667 C 172.406 211.300,174.713 211.000,175.961 211.000 C 177.361 211.000,178.971 210.745,180.167 210.333 C 181.232 209.967,182.893 209.667,183.858 209.667 C 184.871 209.667,186.268 209.385,187.167 209.000 C 188.022 208.633,189.390 208.333,190.208 208.333 C 191.035 208.333,192.272 208.038,193.000 207.667 C 193.719 207.300,194.844 207.000,195.500 207.000 C 196.156 207.000,197.281 206.700,198.000 206.333 C 198.719 205.967,199.800 205.666,200.403 205.665 C 201.007 205.665,201.991 205.365,202.591 204.999 C 203.192 204.633,204.167 204.333,204.758 204.332 C 205.349 204.331,206.324 204.031,206.925 203.665 C 207.525 203.299,208.425 202.997,208.925 202.993 C 209.424 202.989,210.208 202.692,210.667 202.333 C 211.713 201.515,214.328 201.369,213.667 202.167 C 213.434 202.447,212.707 202.667,212.011 202.667 C 211.193 202.667,210.564 202.894,210.167 203.333 C 209.770 203.772,209.140 204.000,208.327 204.000 C 207.595 204.000,206.744 204.272,206.242 204.667 C 205.719 205.078,204.890 205.333,204.076 205.333 C 203.261 205.333,202.432 205.588,201.909 206.000 C 201.359 206.433,200.554 206.667,199.614 206.669 C 198.731 206.670,197.777 206.929,197.167 207.333 C 196.561 207.734,195.603 207.996,194.737 207.998 C 193.950 207.999,192.719 208.300,192.000 208.667 C 191.201 209.074,190.035 209.333,189.000 209.333 C 187.965 209.333,186.799 209.592,186.000 210.000 C 185.095 210.462,184.035 210.667,182.555 210.667 C 181.379 210.667,179.761 210.914,178.959 211.217 C 178.135 211.528,175.830 211.872,173.667 212.008 C 171.558 212.141,168.783 212.491,167.500 212.786 C 163.685 213.662,139.624 213.567,135.517 212.659 C 133.876 212.297,131.312 212.000,129.819 212.000 C 127.972 212.000,126.485 211.787,125.167 211.333 C 124.075 210.958,122.342 210.663,121.198 210.659 C 119.900 210.655,118.642 210.414,117.714 209.993 C 116.872 209.611,115.540 209.333,114.547 209.332 C 113.423 209.331,112.458 209.102,111.742 208.665 C 111.060 208.250,110.060 207.999,109.075 207.998 C 108.064 207.996,107.142 207.758,106.500 207.333 C 105.925 206.953,104.933 206.669,104.167 206.667 C 103.401 206.664,102.408 206.381,101.833 206.000 C 101.247 205.611,100.269 205.337,99.468 205.336 C 98.529 205.334,97.915 205.126,97.500 204.667 C 97.080 204.202,96.473 204.000,95.500 204.000 C 94.527 204.000,93.920 203.798,93.500 203.333 C 93.103 202.894,92.473 202.667,91.656 202.667 C 90.959 202.667,90.233 202.447,90.000 202.167 C 89.338 201.369,91.953 201.515,93.000 202.333 " stroke="none" fill="#8c8c8c" fill-rule="evenodd"></path><path id="path4" d="" stroke="none" fill="#848484" fill-rule="evenodd"></path></g></svg>